<svg xmlns="http://www.w3.org/2000/svg" xmlns:xlink="http://www.w3.org/1999/xlink" width="500" zoomAndPan="magnify" viewBox="0 0 375 374.999991" height="500" preserveAspectRatio="xMidYMid meet" version="1.2"><defs><filter x="0%" y="0%" width="100%" filterUnits="objectBoundingBox" id="f2925492ed" height="100%"><feColorMatrix values="0 0 0 0 1 0 0 0 0 1 0 0 0 0 1 0 0 0 1 0" type="matrix" in="SourceGraphic"/></filter><clipPath id="62b76f166b"><path d="M 43.273438 18.097656 L 317.773438 18.097656 L 317.773438 357 L 43.273438 357 Z M 43.273438 18.097656 "/></clipPath><clipPath id="0a2de68f87"><path d="M 317.714844 28.597656 L 317.714844 346.398438 C 317.714844 349.183594 316.609375 351.855469 314.640625 353.824219 C 312.671875 355.792969 310 356.898438 307.214844 356.898438 L 53.773438 356.898438 C 50.988281 356.898438 48.320312 355.792969 46.351562 353.824219 C 44.382812 351.855469 43.273438 349.183594 43.273438 346.398438 L 43.273438 28.597656 C 43.273438 25.8125 44.382812 23.140625 46.351562 21.171875 C 48.320312 19.203125 50.988281 18.097656 53.773438 18.097656 L 307.214844 18.097656 C 310 18.097656 312.671875 19.203125 314.640625 21.171875 C 316.609375 23.140625 317.714844 25.8125 317.714844 28.597656 Z M 317.714844 28.597656 "/></clipPath><clipPath id="2dd6e38fd5"><rect x="0" width="362" y="0" height="375"/></clipPath><clipPath id="12f225ec03"><path d="M 0.160156 0.359375 L 262.960938 0.359375 L 262.960938 8.761719 L 0.160156 8.761719 Z M 0.160156 0.359375 "/></clipPath><clipPath id="df0bdbaa85"><rect x="0" width="263" y="0" height="9"/></clipPath><clipPath id="e5ab727272"><path d="M 1.023438 0.078125 L 112 0.078125 L 112 55.578125 L 1.023438 55.578125 Z M 1.023438 0.078125 "/></clipPath><clipPath id="5ef9635f57"><rect x="0" width="113" y="0" height="56"/></clipPath><clipPath id="f9acd5fb5b"><path d="M 1 1.144531 L 111.976562 1.144531 L 111.976562 56.644531 L 1 56.644531 Z M 1 1.144531 "/></clipPath><clipPath id="8f645fec54"><rect x="0" width="113" y="0" height="57"/></clipPath></defs><g id="fb6c3f39cf"><g mask="url(#57bac461cc)" transform="matrix(1,0,0,1,7,0)"><g clip-path="url(#2dd6e38fd5)"><g clip-rule="nonzero" clip-path="url(#62b76f166b)"><g clip-rule="nonzero" clip-path="url(#0a2de68f87)"><path style="fill:none;stroke-width:28;stroke-linecap:butt;stroke-linejoin:miter;stroke:#2e6417;stroke-opacity:1;stroke-miterlimit:4;" d="M 365.920164 14.001018 L 365.920164 437.735394 C 365.920164 441.448935 364.446206 445.011435 361.821206 447.636435 C 359.196206 450.261435 355.633706 451.735394 351.920164 451.735394 L 13.998288 451.735394 C 10.284747 451.735394 6.727455 450.261435 4.102455 447.636435 C 1.477455 445.011435 -0.0017116 441.448935 -0.0017116 437.735394 L -0.0017116 14.001018 C -0.0017116 10.287476 1.477455 6.724976 4.102455 4.099976 C 6.727455 1.474976 10.284747 0.00101792 13.998288 0.00101792 L 351.920164 0.00101792 C 355.633706 0.00101792 359.196206 1.474976 361.821206 4.099976 C 364.446206 6.724976 365.920164 10.287476 365.920164 14.001018 Z M 365.920164 14.001018 " transform="matrix(0.75,0,0,0.75,43.274721,18.096893)"/></g></g></g><mask id="57bac461cc"><g filter="url(#f2925492ed)"><rect x="0" width="375" y="0" height="374.999991" style="fill:#000000;fill-opacity:0.25;stroke:none;"/></g></mask></g><g mask="url(#f8b625636e)" transform="matrix(1,0,0,1,56,183)"><g clip-path="url(#df0bdbaa85)"><g clip-rule="nonzero" clip-path="url(#12f225ec03)"><path style="fill:none;stroke-width:11;stroke-linecap:butt;stroke-linejoin:miter;stroke:#2e6417;stroke-opacity:1;stroke-miterlimit:4;" d="M 0.00124932 5.500016 L 337.740855 5.500016 " transform="matrix(0.75,0.000000000000000063,-0.000000000000000063,0.75,4.772501,0.374988)"/></g></g><mask id="f8b625636e"><g filter="url(#f2925492ed)"><rect x="0" width="375" y="0" height="374.999991" style="fill:#000000;fill-opacity:0.25;stroke:none;"/></g></mask></g><g mask="url(#9245cb3aaf)" transform="matrix(1,0,0,1,131,28)"><g clip-path="url(#5ef9635f57)"><g clip-rule="nonzero" clip-path="url(#e5ab727272)"><path style=" stroke:none;fill-rule:nonzero;fill:#2e6417;fill-opacity:1;" d="M 56.550781 55.589844 C 41.234375 55.589844 27.378906 49.386719 17.402344 39.359375 C 7.371094 29.328125 1.171875 15.472656 1.171875 0.210938 L 8.773438 0.210938 C 8.773438 13.367188 14.113281 25.339844 22.742188 33.964844 C 31.421875 42.59375 43.339844 47.984375 56.550781 47.984375 C 69.707031 47.984375 81.679688 42.59375 90.304688 33.964844 C 98.933594 25.339844 104.273438 13.367188 104.273438 0.210938 L 111.875 0.210938 C 111.875 15.472656 105.726562 29.328125 95.699219 39.359375 C 85.667969 49.386719 71.808594 55.589844 56.550781 55.589844 Z M 56.550781 55.589844 "/></g></g><mask id="9245cb3aaf"><g filter="url(#f2925492ed)"><rect x="0" width="375" y="0" height="374.999991" style="fill:#000000;fill-opacity:0.25;stroke:none;"/></g></mask></g><g style="fill:#2e6417;fill-opacity:1;"><g transform="translate(136.653629, 251.626279)"><path style="stroke:none" d="M 34.921875 -43.953125 L 34.921875 -35.265625 C 34.921875 -24.703125 39.859375 -19.25 49.734375 -18.90625 L 49.734375 2.71875 C 21.578125 2.71875 7.441406 -12.835938 7.328125 -43.953125 Z M 54.84375 2.5625 L 54.84375 -19.078125 C 62.113281 -20.210938 65.75 -25.773438 65.75 -35.765625 L 65.75 -61.328125 C 65.75 -67.910156 62.113281 -71.539062 54.84375 -72.21875 L 54.84375 -93.34375 C 68.59375 -93.113281 78.5625 -90.273438 84.75 -84.828125 C 90.9375 -79.378906 94.03125 -71.144531 94.03125 -60.125 L 94.03125 -33.5625 C 94.03125 -11.1875 80.96875 0.851562 54.84375 2.5625 Z M 49.734375 -92.84375 L 49.734375 -72.21875 C 41.109375 -71.195312 35.828125 -67.164062 33.890625 -60.125 L 7.828125 -61.15625 L 11.25 -134.90625 L 90.109375 -134.90625 L 90.109375 -112.25 L 35.9375 -112.25 L 34.921875 -85 C 36.960938 -87.039062 39.175781 -88.742188 41.5625 -90.109375 C 43.945312 -91.472656 46.671875 -92.382812 49.734375 -92.84375 Z M 49.734375 -92.84375 "/></g></g><g mask="url(#c7ed55c828)" transform="matrix(1,0,0,1,131,290)"><g clip-path="url(#8f645fec54)"><g clip-rule="nonzero" clip-path="url(#f9acd5fb5b)"><path style=" stroke:none;fill-rule:nonzero;fill:#2e6417;fill-opacity:1;" d="M 56.449219 1.132812 C 71.761719 1.132812 85.621094 7.335938 95.597656 17.367188 C 105.625 27.394531 111.828125 41.253906 111.828125 56.511719 L 104.226562 56.511719 C 104.226562 43.355469 98.886719 31.386719 90.257812 22.757812 C 81.578125 14.128906 69.660156 8.738281 56.449219 8.738281 C 43.292969 8.738281 31.320312 14.128906 22.695312 22.757812 C 14.066406 31.386719 8.726562 43.355469 8.726562 56.511719 L 1.125 56.511719 C 1.125 41.253906 7.273438 27.394531 17.300781 17.367188 C 27.332031 7.335938 41.1875 1.132812 56.449219 1.132812 Z M 56.449219 1.132812 "/></g></g><mask id="c7ed55c828"><g filter="url(#f2925492ed)"><rect x="0" width="375" y="0" height="374.999991" style="fill:#000000;fill-opacity:0.25;stroke:none;"/></g></mask></g></g></svg>