<svg xmlns="http://www.w3.org/2000/svg" xmlns:xlink="http://www.w3.org/1999/xlink" width="500" zoomAndPan="magnify" viewBox="0 0 375 374.999991" height="500" preserveAspectRatio="xMidYMid meet" version="1.2"><defs><filter x="0%" y="0%" width="100%" filterUnits="objectBoundingBox" id="4f00df3d17" height="100%"><feColorMatrix values="0 0 0 0 1 0 0 0 0 1 0 0 0 0 1 0 0 0 1 0" type="matrix" in="SourceGraphic"/></filter><clipPath id="c1c2d23901"><path d="M 43.273438 18.097656 L 317.773438 18.097656 L 317.773438 357 L 43.273438 357 Z M 43.273438 18.097656 "/></clipPath><clipPath id="468d746b43"><path d="M 317.714844 28.597656 L 317.714844 346.398438 C 317.714844 349.183594 316.609375 351.855469 314.640625 353.824219 C 312.671875 355.792969 310 356.898438 307.214844 356.898438 L 53.773438 356.898438 C 50.988281 356.898438 48.320312 355.792969 46.351562 353.824219 C 44.382812 351.855469 43.273438 349.183594 43.273438 346.398438 L 43.273438 28.597656 C 43.273438 25.8125 44.382812 23.140625 46.351562 21.171875 C 48.320312 19.203125 50.988281 18.097656 53.773438 18.097656 L 307.214844 18.097656 C 310 18.097656 312.671875 19.203125 314.640625 21.171875 C 316.609375 23.140625 317.714844 25.8125 317.714844 28.597656 Z M 317.714844 28.597656 "/></clipPath><clipPath id="df207b11c8"><rect x="0" width="362" y="0" height="375"/></clipPath><clipPath id="0f5c573b16"><path d="M 0.160156 0.359375 L 262.960938 0.359375 L 262.960938 8.761719 L 0.160156 8.761719 Z M 0.160156 0.359375 "/></clipPath><clipPath id="55a18f7002"><rect x="0" width="263" y="0" height="9"/></clipPath><clipPath id="c744c10850"><path d="M 1.023438 0.078125 L 112 0.078125 L 112 55.578125 L 1.023438 55.578125 Z M 1.023438 0.078125 "/></clipPath><clipPath id="d01114c28d"><rect x="0" width="113" y="0" height="56"/></clipPath><clipPath id="14c0a8d916"><path d="M 1 1.144531 L 111.976562 1.144531 L 111.976562 56.644531 L 1 56.644531 Z M 1 1.144531 "/></clipPath><clipPath id="8709a8a4f1"><rect x="0" width="113" y="0" height="57"/></clipPath></defs><g id="f71ae618f9"><g mask="url(#543537fd2c)" transform="matrix(1,0,0,1,7,0)"><g clip-path="url(#df207b11c8)"><g clip-rule="nonzero" clip-path="url(#c1c2d23901)"><g clip-rule="nonzero" clip-path="url(#468d746b43)"><path style="fill:none;stroke-width:28;stroke-linecap:butt;stroke-linejoin:miter;stroke:#2e6417;stroke-opacity:1;stroke-miterlimit:4;" d="M 365.920164 14.001018 L 365.920164 437.735394 C 365.920164 441.448935 364.446206 445.011435 361.821206 447.636435 C 359.196206 450.261435 355.633706 451.735394 351.920164 451.735394 L 13.998288 451.735394 C 10.284747 451.735394 6.727455 450.261435 4.102455 447.636435 C 1.477455 445.011435 -0.0017116 441.448935 -0.0017116 437.735394 L -0.0017116 14.001018 C -0.0017116 10.287476 1.477455 6.724976 4.102455 4.099976 C 6.727455 1.474976 10.284747 0.00101792 13.998288 0.00101792 L 351.920164 0.00101792 C 355.633706 0.00101792 359.196206 1.474976 361.821206 4.099976 C 364.446206 6.724976 365.920164 10.287476 365.920164 14.001018 Z M 365.920164 14.001018 " transform="matrix(0.75,0,0,0.75,43.274721,18.096893)"/></g></g></g><mask id="543537fd2c"><g filter="url(#4f00df3d17)"><rect x="0" width="375" y="0" height="374.999991" style="fill:#000000;fill-opacity:0.25;stroke:none;"/></g></mask></g><g mask="url(#13c9a0e209)" transform="matrix(1,0,0,1,56,183)"><g clip-path="url(#55a18f7002)"><g clip-rule="nonzero" clip-path="url(#0f5c573b16)"><path style="fill:none;stroke-width:11;stroke-linecap:butt;stroke-linejoin:miter;stroke:#2e6417;stroke-opacity:1;stroke-miterlimit:4;" d="M 0.00124932 5.500016 L 337.740855 5.500016 " transform="matrix(0.75,0.000000000000000063,-0.000000000000000063,0.75,4.772501,0.374988)"/></g></g><mask id="13c9a0e209"><g filter="url(#4f00df3d17)"><rect x="0" width="375" y="0" height="374.999991" style="fill:#000000;fill-opacity:0.25;stroke:none;"/></g></mask></g><g mask="url(#26ce110b0f)" transform="matrix(1,0,0,1,131,28)"><g clip-path="url(#d01114c28d)"><g clip-rule="nonzero" clip-path="url(#c744c10850)"><path style=" stroke:none;fill-rule:nonzero;fill:#2e6417;fill-opacity:1;" d="M 56.550781 55.589844 C 41.234375 55.589844 27.378906 49.386719 17.402344 39.359375 C 7.371094 29.328125 1.171875 15.472656 1.171875 0.210938 L 8.773438 0.210938 C 8.773438 13.367188 14.113281 25.339844 22.742188 33.964844 C 31.421875 42.59375 43.339844 47.984375 56.550781 47.984375 C 69.707031 47.984375 81.679688 42.59375 90.304688 33.964844 C 98.933594 25.339844 104.273438 13.367188 104.273438 0.210938 L 111.875 0.210938 C 111.875 15.472656 105.726562 29.328125 95.699219 39.359375 C 85.667969 49.386719 71.808594 55.589844 56.550781 55.589844 Z M 56.550781 55.589844 "/></g></g><mask id="26ce110b0f"><g filter="url(#4f00df3d17)"><rect x="0" width="375" y="0" height="374.999991" style="fill:#000000;fill-opacity:0.25;stroke:none;"/></g></mask></g><g style="fill:#2e6417;fill-opacity:1;"><g transform="translate(121.993466, 156.356085)"><path style="stroke:none" d="M 13.140625 -16.546875 L 13.140625 -13.28125 C 13.140625 -9.300781 15 -7.25 18.71875 -7.125 L 18.71875 1.03125 C 8.125 1.03125 2.800781 -4.828125 2.75 -16.546875 Z M 20.640625 0.96875 L 20.640625 -7.1875 C 23.378906 -7.613281 24.75 -9.707031 24.75 -13.46875 L 24.75 -23.078125 C 24.75 -25.554688 23.378906 -26.925781 20.640625 -27.1875 L 20.640625 -35.140625 C 25.816406 -35.054688 29.566406 -33.988281 31.890625 -31.9375 C 34.222656 -29.882812 35.390625 -26.785156 35.390625 -22.640625 L 35.390625 -12.625 C 35.390625 -4.207031 30.472656 0.320312 20.640625 0.96875 Z M 18.71875 -34.953125 L 18.71875 -27.1875 C 15.46875 -26.800781 13.484375 -25.285156 12.765625 -22.640625 L 2.953125 -23.015625 L 4.234375 -50.78125 L 33.921875 -50.78125 L 33.921875 -42.265625 L 13.53125 -42.265625 L 13.140625 -32 C 13.910156 -32.769531 14.742188 -33.410156 15.640625 -33.921875 C 16.546875 -34.429688 17.570312 -34.773438 18.71875 -34.953125 Z M 18.71875 -34.953125 "/></g></g><g style="fill:#a6a6a6;fill-opacity:1;"><g transform="translate(160.27862, 156.356085)"><path style="stroke:none" d="M 3.203125 0 L 3.203125 -50.78125 L 15.203125 -50.78125 L 15.203125 0 Z M 3.203125 0 "/></g></g><g style="fill:#a6a6a6;fill-opacity:1;"><g transform="translate(178.679105, 156.356085)"><path style="stroke:none" d="M 28.65625 -50.78125 L 40.328125 -50.78125 L 26.484375 0 L 21.9375 -18.53125 Z M 12.0625 -50.78125 L 24.109375 0 L 14.5 0 L 0.453125 -50.78125 Z M 12.0625 -50.78125 "/></g></g><g style="fill:#a6a6a6;fill-opacity:1;"><g transform="translate(219.134527, 156.356085)"><path style="stroke:none" d="M 16.734375 -22.1875 L 16.734375 -30.65625 L 31.09375 -30.65625 L 31.09375 -22.1875 Z M 16.734375 -42.265625 L 16.734375 -50.78125 L 32 -50.78125 L 32 -42.265625 Z M 32 -8.78125 L 32 0 L 16.734375 0 L 16.734375 -8.78125 Z M 3.203125 -50.78125 L 14.9375 -50.78125 L 14.9375 0 L 3.203125 0 Z M 3.203125 -50.78125 "/></g></g><g mask="url(#aab2520a41)" transform="matrix(1,0,0,1,131,290)"><g clip-path="url(#8709a8a4f1)"><g clip-rule="nonzero" clip-path="url(#14c0a8d916)"><path style=" stroke:none;fill-rule:nonzero;fill:#2e6417;fill-opacity:1;" d="M 56.449219 1.132812 C 71.761719 1.132812 85.621094 7.335938 95.597656 17.367188 C 105.625 27.394531 111.828125 41.253906 111.828125 56.511719 L 104.226562 56.511719 C 104.226562 43.355469 98.886719 31.386719 90.257812 22.757812 C 81.578125 14.128906 69.660156 8.738281 56.449219 8.738281 C 43.292969 8.738281 31.320312 14.128906 22.695312 22.757812 C 14.066406 31.386719 8.726562 43.355469 8.726562 56.511719 L 1.125 56.511719 C 1.125 41.253906 7.273438 27.394531 17.300781 17.367188 C 27.332031 7.335938 41.1875 1.132812 56.449219 1.132812 Z M 56.449219 1.132812 "/></g></g><mask id="aab2520a41"><g filter="url(#4f00df3d17)"><rect x="0" width="375" y="0" height="374.999991" style="fill:#000000;fill-opacity:0.25;stroke:none;"/></g></mask></g><g style="fill:#2e6417;fill-opacity:1;"><g transform="translate(119.310333, 239.889934)"><path style="stroke:none" d="M 0.25 -20.6875 L 0.25 -25.859375 L 18.4375 -25.859375 L 18.4375 -20.6875 L 12.28125 -20.6875 L 12.28125 0 L 6.390625 0 L 6.390625 -20.6875 Z M 0.25 -20.6875 "/></g></g><g style="fill:#2e6417;fill-opacity:1;"><g transform="translate(137.991746, 239.889934)"><path style="stroke:none" d="M 1.875 -25.859375 L 11.125 -25.859375 C 13.613281 -25.859375 15.640625 -25.191406 17.203125 -23.859375 C 18.773438 -22.535156 19.5625 -20.640625 19.5625 -18.171875 C 19.5625 -16.273438 19.082031 -14.679688 18.125 -13.390625 C 17.175781 -12.109375 15.890625 -11.207031 14.265625 -10.6875 L 23.15625 0 L 15.671875 0 L 7.765625 -10.21875 L 7.765625 0 L 1.875 0 Z M 7.765625 -14.390625 L 8.46875 -14.390625 C 9.007812 -14.390625 9.46875 -14.398438 9.84375 -14.421875 C 10.21875 -14.441406 10.644531 -14.515625 11.125 -14.640625 C 11.601562 -14.765625 11.988281 -14.941406 12.28125 -15.171875 C 12.570312 -15.398438 12.820312 -15.734375 13.03125 -16.171875 C 13.25 -16.609375 13.359375 -17.140625 13.359375 -17.765625 C 13.359375 -18.398438 13.25 -18.9375 13.03125 -19.375 C 12.820312 -19.8125 12.570312 -20.144531 12.28125 -20.375 C 11.988281 -20.601562 11.601562 -20.78125 11.125 -20.90625 C 10.644531 -21.03125 10.21875 -21.101562 9.84375 -21.125 C 9.46875 -21.144531 9.007812 -21.15625 8.46875 -21.15625 L 7.765625 -21.15625 Z M 7.765625 -14.390625 "/></g></g><g style="fill:#2e6417;fill-opacity:1;"><g transform="translate(160.434515, 239.889934)"><path style="stroke:none" d="M 15.015625 -25.859375 L 25.453125 0 L 19.125 0 L 17.203125 -5.171875 L 7.359375 -5.171875 L 5.453125 0 L -0.875 0 L 9.5625 -25.859375 Z M 15.203125 -10.34375 L 12.3125 -17.859375 L 12.25 -17.859375 L 9.375 -10.34375 Z M 15.203125 -10.34375 "/></g></g><g style="fill:#2e6417;fill-opacity:1;"><g transform="translate(184.005671, 239.889934)"><path style="stroke:none" d="M 15.640625 -5.328125 C 16.535156 -5.328125 17.40625 -5.460938 18.25 -5.734375 C 19.101562 -6.003906 19.726562 -6.265625 20.125 -6.515625 L 20.71875 -6.921875 L 23.21875 -1.90625 C 23.132812 -1.84375 23.019531 -1.757812 22.875 -1.65625 C 22.726562 -1.550781 22.390625 -1.359375 21.859375 -1.078125 C 21.328125 -0.796875 20.757812 -0.550781 20.15625 -0.34375 C 19.550781 -0.132812 18.753906 0.0507812 17.765625 0.21875 C 16.785156 0.382812 15.773438 0.46875 14.734375 0.46875 C 12.328125 0.46875 10.046875 -0.117188 7.890625 -1.296875 C 5.742188 -2.484375 4.007812 -4.109375 2.6875 -6.171875 C 1.375 -8.242188 0.71875 -10.476562 0.71875 -12.875 C 0.71875 -14.695312 1.101562 -16.441406 1.875 -18.109375 C 2.65625 -19.785156 3.6875 -21.21875 4.96875 -22.40625 C 6.25 -23.601562 7.742188 -24.554688 9.453125 -25.265625 C 11.171875 -25.972656 12.929688 -26.328125 14.734375 -26.328125 C 16.398438 -26.328125 17.9375 -26.128906 19.34375 -25.734375 C 20.757812 -25.335938 21.757812 -24.941406 22.34375 -24.546875 L 23.21875 -23.953125 L 20.71875 -18.9375 C 20.570312 -19.0625 20.351562 -19.210938 20.0625 -19.390625 C 19.769531 -19.566406 19.179688 -19.800781 18.296875 -20.09375 C 17.421875 -20.382812 16.535156 -20.53125 15.640625 -20.53125 C 14.222656 -20.53125 12.945312 -20.300781 11.8125 -19.84375 C 10.6875 -19.382812 9.796875 -18.773438 9.140625 -18.015625 C 8.484375 -17.265625 7.976562 -16.457031 7.625 -15.59375 C 7.28125 -14.726562 7.109375 -13.84375 7.109375 -12.9375 C 7.109375 -10.976562 7.84375 -9.21875 9.3125 -7.65625 C 10.789062 -6.101562 12.898438 -5.328125 15.640625 -5.328125 Z M 15.640625 -5.328125 "/></g></g><g style="fill:#2e6417;fill-opacity:1;"><g transform="translate(207.608195, 239.889934)"><path style="stroke:none" d="M 25.421875 0 L 17.296875 0 L 7.765625 -10.96875 L 7.765625 0 L 1.875 0 L 1.875 -25.859375 L 7.765625 -25.859375 L 7.765625 -15.296875 L 16.640625 -25.859375 L 23.796875 -25.859375 L 13.390625 -13.609375 Z M 25.421875 0 "/></g></g><g style="fill:#a6a6a6;fill-opacity:1;"><g transform="translate(232.277197, 239.889934)"><path style="stroke:none" d="M 1.875 -25.859375 L 11.125 -25.859375 C 13.613281 -25.859375 15.640625 -25.191406 17.203125 -23.859375 C 18.773438 -22.535156 19.5625 -20.640625 19.5625 -18.171875 C 19.5625 -16.273438 19.082031 -14.679688 18.125 -13.390625 C 17.175781 -12.109375 15.890625 -11.207031 14.265625 -10.6875 L 23.15625 0 L 15.671875 0 L 7.765625 -10.21875 L 7.765625 0 L 1.875 0 Z M 7.765625 -14.390625 L 8.46875 -14.390625 C 9.007812 -14.390625 9.46875 -14.398438 9.84375 -14.421875 C 10.21875 -14.441406 10.644531 -14.515625 11.125 -14.640625 C 11.601562 -14.765625 11.988281 -14.941406 12.28125 -15.171875 C 12.570312 -15.398438 12.820312 -15.734375 13.03125 -16.171875 C 13.25 -16.609375 13.359375 -17.140625 13.359375 -17.765625 C 13.359375 -18.398438 13.25 -18.9375 13.03125 -19.375 C 12.820312 -19.8125 12.570312 -20.144531 12.28125 -20.375 C 11.988281 -20.601562 11.601562 -20.78125 11.125 -20.90625 C 10.644531 -21.03125 10.21875 -21.101562 9.84375 -21.125 C 9.46875 -21.144531 9.007812 -21.15625 8.46875 -21.15625 L 7.765625 -21.15625 Z M 7.765625 -14.390625 "/></g></g></g></svg>