<svg xmlns="http://www.w3.org/2000/svg" xmlns:xlink="http://www.w3.org/1999/xlink" width="500" zoomAndPan="magnify" viewBox="0 0 375 262.499992" height="350" preserveAspectRatio="xMidYMid meet" version="1.2"><defs><clipPath id="7ab354ad20"><path d="M 0.355469 0 L 374.640625 0 L 374.640625 262 L 0.355469 262 Z M 0.355469 0 "/></clipPath><clipPath id="44438eaf44"><path d="M 11.472656 7.722656 L 363 7.722656 L 363 259.8125 L 11.472656 259.8125 Z M 11.472656 7.722656 "/></clipPath><clipPath id="363077c728"><path d="M 18.808594 7.722656 L 355.632812 7.722656 C 359.683594 7.722656 362.96875 11.003906 362.96875 15.058594 L 362.96875 252.476562 C 362.96875 256.527344 359.683594 259.8125 355.632812 259.8125 L 18.808594 259.8125 C 14.757812 259.8125 11.472656 256.527344 11.472656 252.476562 L 11.472656 15.058594 C 11.472656 11.003906 14.757812 7.722656 18.808594 7.722656 Z M 18.808594 7.722656 "/></clipPath><clipPath id="045670486a"><path d="M 11.476562 7.542969 L 362.972656 7.542969 L 362.972656 259.8125 L 11.476562 259.8125 Z M 11.476562 7.542969 "/></clipPath><clipPath id="cfbf617bed"><path d="M 18.8125 7.730469 L 355.625 7.730469 C 359.675781 7.730469 362.960938 11.015625 362.960938 15.066406 L 362.960938 252.476562 C 362.960938 256.527344 359.675781 259.8125 355.625 259.8125 L 18.8125 259.8125 C 14.757812 259.8125 11.476562 256.527344 11.476562 252.476562 L 11.476562 15.066406 C 11.476562 11.015625 14.757812 7.730469 18.8125 7.730469 Z M 18.8125 7.730469 "/></clipPath><clipPath id="b36191916c"><path d="M 140 0 L 235 0 L 235 262 L 140 262 Z M 140 0 "/></clipPath><clipPath id="8e7e3a1deb"><path d="M 11.8125 79 L 63.464844 79 L 63.464844 182.925781 L 11.8125 182.925781 Z M 11.8125 79 "/></clipPath><clipPath id="ad53420669"><path d="M 310.976562 79.070312 L 362.628906 79.070312 L 362.628906 183 L 310.976562 183 Z M 310.976562 79.070312 "/></clipPath><clipPath id="8e998bd301"><path d="M 0.359375 0 L 374.640625 0 L 374.640625 262 L 0.359375 262 Z M 0.359375 0 "/></clipPath><clipPath id="a8a0448bca"><path d="M 7.695312 0 L 367.304688 0 C 371.359375 0 374.640625 3.285156 374.640625 7.335938 L 374.640625 254.664062 C 374.640625 258.714844 371.359375 262 367.304688 262 L 7.695312 262 C 3.640625 262 0.359375 258.714844 0.359375 254.664062 L 0.359375 7.335938 C 0.359375 3.285156 3.640625 0 7.695312 0 Z M 7.695312 0 "/></clipPath></defs><g id="2110eb6e59"><g clip-rule="nonzero" clip-path="url(#7ab354ad20)"><path style=" stroke:none;fill-rule:nonzero;fill:#ffffff;fill-opacity:1;" d="M 0.355469 0 L 374.644531 0 L 374.644531 262 L 0.355469 262 Z M 0.355469 0 "/><path style=" stroke:none;fill-rule:nonzero;fill:#ffffff;fill-opacity:1;" d="M 0.355469 0 L 374.644531 0 L 374.644531 262 L 0.355469 262 Z M 0.355469 0 "/></g><g clip-rule="nonzero" clip-path="url(#44438eaf44)"><g clip-rule="nonzero" clip-path="url(#363077c728)"><path style=" stroke:none;fill-rule:nonzero;fill:#2e6417;fill-opacity:1;" d="M 11.472656 259.8125 L 11.472656 7.722656 L 363.019531 7.722656 L 363.019531 259.8125 Z M 11.472656 259.8125 "/></g></g><g clip-rule="nonzero" clip-path="url(#045670486a)"><g clip-rule="nonzero" clip-path="url(#cfbf617bed)"><path style="fill:none;stroke-width:20;stroke-linecap:butt;stroke-linejoin:miter;stroke:#2e6417;stroke-opacity:1;stroke-miterlimit:4;" d="M 336.749324 9.802247 L 336.749324 459.741009 C 336.749324 465.152338 332.360772 469.54089 326.949443 469.54089 L 9.799599 469.54089 C 4.388269 469.54089 -0.000282847 465.152338 -0.000282847 459.741009 L -0.000282847 9.802247 C -0.000282847 4.385699 4.388269 0.00236501 9.799599 0.00236501 L 326.949443 0.00236501 C 332.360772 0.00236501 336.749324 4.385699 336.749324 9.802247 Z M 336.749324 9.802247 " transform="matrix(0,-0.748574,0.748574,0,11.474792,259.812288)"/></g></g><g clip-rule="nonzero" clip-path="url(#b36191916c)"><path style="fill:none;stroke-width:11;stroke-linecap:butt;stroke-linejoin:miter;stroke:#ffffff;stroke-opacity:1;stroke-miterlimit:4;" d="M 0.000159551 5.497529 L 336.761027 5.499847 " transform="matrix(0.00165357,-0.748572,0.748572,0.00165357,183.099546,259.807435)"/></g><g clip-rule="nonzero" clip-path="url(#8e7e3a1deb)"><path style=" stroke:none;fill-rule:nonzero;fill:#ffffff;fill-opacity:1;" d="M 63.472656 130.632812 C 63.472656 144.921875 57.6875 157.851562 48.328125 167.160156 C 38.972656 176.515625 26.042969 182.300781 11.804688 182.300781 L 11.804688 175.207031 C 24.078125 175.207031 35.25 170.226562 43.296875 162.175781 C 51.347656 154.078125 56.378906 142.957031 56.378906 130.632812 C 56.378906 118.355469 51.347656 107.1875 43.296875 99.136719 C 35.25 91.085938 24.078125 86.105469 11.804688 86.105469 L 11.804688 79.011719 C 26.042969 79.011719 38.972656 84.75 48.328125 94.105469 C 57.6875 103.464844 63.472656 116.394531 63.472656 130.632812 Z M 63.472656 130.632812 "/></g><g clip-rule="nonzero" clip-path="url(#ad53420669)"><path style=" stroke:none;fill-rule:nonzero;fill:#ffffff;fill-opacity:1;" d="M 310.96875 131.363281 C 310.96875 117.074219 316.753906 104.144531 326.109375 94.835938 C 335.46875 85.480469 348.398438 79.691406 362.636719 79.691406 L 362.636719 86.789062 C 350.359375 86.789062 339.191406 91.769531 331.140625 99.816406 C 323.09375 107.917969 318.0625 119.035156 318.0625 131.363281 C 318.0625 143.640625 323.09375 154.808594 331.140625 162.859375 C 339.191406 170.90625 350.359375 175.886719 362.636719 175.886719 L 362.636719 182.980469 C 348.398438 182.980469 335.46875 177.246094 326.109375 167.890625 C 316.753906 158.53125 310.96875 145.601562 310.96875 131.363281 Z M 310.96875 131.363281 "/></g><g clip-rule="nonzero" clip-path="url(#8e998bd301)"><g clip-rule="nonzero" clip-path="url(#a8a0448bca)"><path style="fill:none;stroke-width:26;stroke-linecap:butt;stroke-linejoin:miter;stroke:#ffffff;stroke-opacity:1;stroke-miterlimit:4;" d="M 350 9.801928 L 350 490.194422 C 350 495.61097 345.611448 499.994304 340.200118 499.994304 L 9.801127 499.994304 C 4.389797 499.994304 0.00124512 495.61097 0.00124512 490.194422 L 0.00124512 9.801928 C 0.00124512 4.38538 4.389797 0.0020465 9.801127 0.0020465 L 340.200118 0.0020465 C 345.611448 0.0020465 350 4.38538 350 9.801928 Z M 350 9.801928 " transform="matrix(0,-0.748574,0.748574,0,0.357843,262.000932)"/></g></g></g></svg>