<svg xmlns="http://www.w3.org/2000/svg" xmlns:xlink="http://www.w3.org/1999/xlink" width="500" zoomAndPan="magnify" viewBox="0 0 375 374.999991" height="500" preserveAspectRatio="xMidYMid meet" version="1.2"><defs><clipPath id="237c1177f6"><path d="M 42.445312 53.609375 L 340.957031 53.609375 L 340.957031 349.804688 L 42.445312 349.804688 Z M 42.445312 53.609375 "/></clipPath><clipPath id="5116897c59"><path d="M 59.695312 53.609375 L 323.421875 53.609375 C 327.996094 53.609375 332.386719 55.429688 335.621094 58.664062 C 338.855469 61.898438 340.671875 66.285156 340.671875 70.859375 L 340.671875 332.554688 C 340.671875 337.132812 338.855469 341.519531 335.621094 344.753906 C 332.386719 347.988281 327.996094 349.804688 323.421875 349.804688 L 59.695312 349.804688 C 55.121094 349.804688 50.734375 347.988281 47.5 344.753906 C 44.265625 341.519531 42.445312 337.132812 42.445312 332.554688 L 42.445312 70.859375 C 42.445312 66.285156 44.265625 61.898438 47.5 58.664062 C 50.734375 55.429688 55.121094 53.609375 59.695312 53.609375 Z M 59.695312 53.609375 "/></clipPath><clipPath id="602e7fe993"><path d="M 10.78125 213 L 364.03125 213 L 364.03125 375 L 10.78125 375 Z M 10.78125 213 "/></clipPath><clipPath id="de3ba52895"><path d="M 10.78125 328 L 97 328 L 97 375 L 10.78125 375 Z M 10.78125 328 "/></clipPath><clipPath id="32f1d6f21a"><path d="M 278 328 L 364.03125 328 L 364.03125 375 L 278 375 Z M 278 328 "/></clipPath><clipPath id="afe7480a49"><path d="M 184 3 L 364.03125 3 L 364.03125 375 L 184 375 Z M 184 3 "/></clipPath><filter x="0%" y="0%" width="100%" filterUnits="objectBoundingBox" id="716d13d580" height="100%"><feColorMatrix values="0 0 0 0 1 0 0 0 0 1 0 0 0 0 1 0 0 0 1 0" type="matrix" in="SourceGraphic"/></filter><clipPath id="371c199b97"><path d="M 0.558594 0.601562 L 180.03125 0.601562 L 180.03125 372 L 0.558594 372 Z M 0.558594 0.601562 "/></clipPath><clipPath id="b82947b7ea"><path d="M 3.40625 1.039062 L 180.027344 1.039062 L 180.027344 371.910156 L 3.40625 371.910156 Z M 3.40625 1.039062 "/></clipPath><clipPath id="c824c5e7d3"><rect x="0" width="181" y="0" height="372"/></clipPath><clipPath id="cb8e204949"><rect x="0" width="181" y="0" height="372"/></clipPath></defs><g id="e1be009ad4"><g clip-rule="nonzero" clip-path="url(#237c1177f6)"><g clip-rule="nonzero" clip-path="url(#5116897c59)"><path style=" stroke:none;fill-rule:nonzero;fill:#a6a6a6;fill-opacity:1;" d="M 42.445312 53.609375 L 340.957031 53.609375 L 340.957031 349.804688 L 42.445312 349.804688 Z M 42.445312 53.609375 "/></g></g><g clip-rule="nonzero" clip-path="url(#602e7fe993)"><path style=" stroke:none;fill-rule:nonzero;fill:#e5e5e5;fill-opacity:1;" d="M 345.40625 264.410156 C 331.277344 223.050781 259.296875 223.109375 226.398438 213.554688 L 148.414062 213.554688 C 115.515625 223.109375 43.535156 223.050781 29.40625 264.410156 L 10.78125 345.042969 C 21.8125 355.039062 55.023438 374.910156 71.078125 374.910156 L 303.734375 374.910156 C 319.789062 374.910156 352.996094 355.039062 364.027344 345.042969 Z M 345.40625 264.410156 "/></g><path style=" stroke:none;fill-rule:nonzero;fill:#fabb84;fill-opacity:1;" d="M 228.363281 173.742188 C 228.027344 185.832031 227.019531 203.632812 227.355469 216.730469 L 147.457031 216.730469 C 147.792969 203.632812 146.785156 185.832031 146.453125 173.742188 Z M 228.363281 173.742188 "/><path style=" stroke:none;fill-rule:nonzero;fill:#fabb84;fill-opacity:1;" d="M 226.402344 213.554688 L 148.410156 213.554688 C 147.1875 213.910156 145.953125 214.261719 144.710938 214.621094 C 152.957031 232.34375 167.070312 248.859375 180.070312 260.566406 C 182.710938 262.941406 183.769531 263.6875 187.203125 263.6875 C 190.636719 263.6875 191.695312 262.941406 194.335938 260.566406 C 207.363281 248.835938 221.5 232.164062 229.742188 214.515625 C 228.621094 214.195312 227.503906 213.875 226.402344 213.554688 "/><path style=" stroke:none;fill-rule:nonzero;fill:#eda96d;fill-opacity:1;" d="M 187.40625 208.023438 C 169.46875 208.023438 156.125 196.792969 146.675781 180.5 C 146.738281 182.132812 146.800781 183.800781 146.863281 185.519531 C 156.300781 201.644531 169.585938 212.738281 187.40625 212.738281 C 205.226562 212.738281 218.507812 201.644531 227.949219 185.519531 C 228.011719 183.800781 228.074219 182.132812 228.132812 180.5 C 218.6875 196.792969 205.34375 208.023438 187.40625 208.023438 "/><path style=" stroke:none;fill-rule:nonzero;fill:#fabb84;fill-opacity:1;" d="M 246.765625 100.382812 C 246.765625 144.664062 230.042969 208.023438 187.40625 208.023438 C 144.769531 208.023438 128.046875 144.664062 128.046875 100.382812 C 128.046875 56.105469 154.621094 20.210938 187.40625 20.210938 C 220.191406 20.210938 246.765625 56.105469 246.765625 100.382812 "/><path style=" stroke:none;fill-rule:nonzero;fill:#fabb84;fill-opacity:1;" d="M 245.496094 107.582031 C 251.539062 97.167969 260.253906 99.335938 258.253906 119.335938 C 257.246094 129.410156 247.175781 157.957031 239.457031 144.1875 C 241.804688 131.09375 245.496094 107.582031 245.496094 107.582031 "/><path style=" stroke:none;fill-rule:nonzero;fill:#fabb84;fill-opacity:1;" d="M 129.316406 107.582031 C 123.273438 97.167969 114.558594 99.335938 116.558594 119.335938 C 117.566406 129.410156 127.636719 157.957031 135.355469 144.1875 C 133.007812 131.09375 129.316406 107.582031 129.316406 107.582031 "/><path style=" stroke:none;fill-rule:nonzero;fill:#775f47;fill-opacity:1;" d="M 147.960938 50 C 142.101562 54.398438 137.640625 67.789062 140.21875 74.957031 C 142.800781 82.128906 139.636719 87.695312 136.78125 97.910156 C 135.632812 101.0625 133.796875 121.292969 130.929688 133.625 C 127.488281 118.136719 126.125 91.238281 123.015625 78.113281 C 118.5625 59.3125 128.964844 22.878906 155.734375 9.710938 C 174.160156 0.65625 215.621094 0.371094 236.265625 23.320312 C 256.910156 46.273438 256.667969 89.820312 251.179688 107.085938 C 249.167969 113.398438 245.375 129.90625 243.367188 136.503906 C 243.082031 122.734375 245.726562 103.933594 240.855469 99.917969 C 235.980469 95.898438 236.554688 85.859375 237.414062 81.269531 C 238.273438 76.679688 238.847656 58.605469 226.234375 51.148438 C 213.617188 43.691406 199.28125 50.289062 185.230469 50.289062 C 171.183594 50.289062 158.28125 42.257812 147.960938 50 "/><path style=" stroke:none;fill-rule:nonzero;fill:#010101;fill-opacity:1;" d="M 125.8125 218.554688 C 135.355469 231.296875 149.617188 255.523438 159.996094 284.945312 C 169.222656 279.175781 180.398438 274.730469 187.203125 263.6875 C 173.695312 254.511719 148.929688 217.628906 146.679688 208.027344 C 139.238281 211.683594 133.71875 213.886719 125.8125 218.554688 "/><path style=" stroke:none;fill-rule:nonzero;fill:#010101;fill-opacity:1;" d="M 249 218.554688 C 239.457031 231.296875 225.195312 255.523438 214.816406 284.945312 C 205.589844 279.175781 194.414062 274.730469 187.609375 263.6875 C 201.117188 254.511719 225.882812 217.628906 228.132812 208.027344 C 235.574219 211.683594 241.09375 213.886719 249 218.554688 "/><g clip-rule="nonzero" clip-path="url(#de3ba52895)"><path style=" stroke:none;fill-rule:nonzero;fill:#010101;fill-opacity:1;" d="M 96.101562 359.421875 L 74.925781 359.421875 C 63.910156 359.421875 29.355469 339.484375 14.671875 328.210938 L 10.78125 345.046875 C 21.816406 355.042969 55.023438 374.910156 71.078125 374.910156 L 96.101562 374.910156 Z M 96.101562 359.421875 "/></g><path style=" stroke:none;fill-rule:nonzero;fill:#010101;fill-opacity:1;" d="M 82.222656 287.984375 L 47.457031 367.902344 C 53.664062 370.773438 59.699219 373.023438 64.863281 374.136719 L 89.875 316.648438 C 87.703125 306.363281 85.082031 296.769531 82.222656 287.984375 M 60.945312 241.746094 L 14.628906 348.222656 C 18.722656 351.402344 24.148438 355.089844 30.1875 358.710938 L 72.183594 262.171875 C 68.316406 253.792969 64.449219 246.894531 60.945312 241.746094 "/><path style=" stroke:none;fill-rule:nonzero;fill:#010101;fill-opacity:1;" d="M 103.355469 374.910156 L 120.652344 374.910156 C 119.859375 307.828125 102.855469 253.859375 89.199219 225.25 C 83.441406 226.585938 77.746094 228.105469 72.273438 229.898438 C 84.894531 255.046875 102.53125 308.394531 103.355469 374.910156 "/><path style=" stroke:none;fill-rule:nonzero;fill:#010101;fill-opacity:1;" d="M 130.90625 374.910156 L 149.355469 374.910156 L 149.355469 271.058594 C 143.449219 257.082031 136.910156 244.746094 130.90625 234.941406 Z M 130.90625 374.910156 "/><g clip-rule="nonzero" clip-path="url(#32f1d6f21a)"><path style=" stroke:none;fill-rule:nonzero;fill:#010101;fill-opacity:1;" d="M 278.710938 359.421875 L 299.886719 359.421875 C 310.902344 359.421875 345.457031 339.484375 360.140625 328.210938 L 364.03125 345.046875 C 352.996094 355.042969 319.789062 374.910156 303.734375 374.910156 L 278.710938 374.910156 Z M 278.710938 359.421875 "/></g><path style=" stroke:none;fill-rule:nonzero;fill:#010101;fill-opacity:1;" d="M 284.9375 316.648438 L 309.945312 374.136719 C 315.113281 373.023438 321.148438 370.773438 327.355469 367.90625 L 292.59375 287.984375 C 289.730469 296.765625 287.109375 306.363281 284.9375 316.648438 M 302.628906 262.171875 L 344.621094 358.710938 C 350.664062 355.09375 356.085938 351.402344 360.179688 348.222656 L 313.863281 241.746094 C 310.367188 246.898438 306.492188 253.792969 302.628906 262.171875 "/><path style=" stroke:none;fill-rule:nonzero;fill:#010101;fill-opacity:1;" d="M 271.457031 374.910156 L 254.160156 374.910156 C 254.945312 307.828125 271.957031 253.859375 285.613281 225.25 C 291.371094 226.585938 297.066406 228.105469 302.539062 229.898438 C 289.914062 255.046875 272.28125 308.394531 271.457031 374.910156 "/><path style=" stroke:none;fill-rule:nonzero;fill:#010101;fill-opacity:1;" d="M 243.90625 234.941406 C 237.902344 244.742188 231.363281 257.082031 225.457031 271.054688 L 225.457031 374.910156 L 243.90625 374.910156 Z M 243.90625 234.941406 "/><path style=" stroke:none;fill-rule:nonzero;fill:#010101;fill-opacity:1;" d="M 187.394531 271.550781 C 184.574219 274.78125 181.4375 277.445312 178.183594 279.699219 L 178.183594 374.910156 L 196.628906 374.910156 L 196.628906 279.699219 C 193.371094 277.441406 190.222656 274.792969 187.394531 271.550781 "/><path style=" stroke:none;fill-rule:nonzero;fill:#4e4e4e;fill-opacity:1;" d="M 240.917969 141.917969 C 243.640625 135.699219 245.851562 129.046875 247.53125 122.164062 C 248.410156 118.566406 248.910156 114.710938 249.730469 111.214844 C 250.867188 106.367188 252.101562 104.671875 253.664062 101.605469 C 253.304688 101.523438 252.9375 101.449219 252.558594 101.480469 C 252.636719 101.09375 252.695312 100.652344 252.769531 100.25 C 250.640625 102.992188 249.070312 106.980469 248.421875 110.953125 C 246.707031 121.492188 243.734375 131.742188 239.582031 140.976562 C 229.582031 163.242188 212.710938 179.632812 189.929688 180.089844 L 189.929688 182.851562 C 213.402344 182.378906 230.734375 165.179688 240.917969 141.917969 "/><path style=" stroke:none;fill-rule:nonzero;fill:#010101;fill-opacity:1;" d="M 189.238281 185.457031 C 187.773438 185.457031 186.136719 185.328125 183.941406 185 C 182.226562 184.738281 181.007812 182.789062 181.210938 180.640625 C 181.417969 178.488281 182.988281 176.960938 184.695312 177.214844 C 188.707031 177.824219 190.414062 177.636719 193.503906 177.296875 C 195.207031 177.117188 196.738281 178.703125 196.890625 180.859375 C 197.042969 183.011719 195.769531 184.917969 194.050781 185.109375 C 192.3125 185.300781 190.886719 185.457031 189.238281 185.457031 "/><g clip-rule="nonzero" clip-path="url(#afe7480a49)"><g mask="url(#5044b47d0e)" transform="matrix(1,0,0,1,184,3)"><g clip-path="url(#cb8e204949)"><g clip-rule="nonzero" clip-path="url(#371c199b97)"><g transform="matrix(1,0,0,1,0.000000000000028422,0)"><g id="5ed66e596b" clip-path="url(#c824c5e7d3)"><g clip-rule="nonzero" clip-path="url(#b82947b7ea)"><path style=" stroke:none;fill-rule:nonzero;fill:#010101;fill-opacity:1;" d="M 161.402344 261.410156 C 155.300781 243.546875 138.40625 233.421875 118.53125 226.898438 L 118.527344 226.898438 C 115.808594 226.003906 113.039062 225.183594 110.234375 224.417969 C 110.203125 224.410156 110.171875 224.402344 110.140625 224.390625 C 107.328125 223.621094 104.476562 222.914062 101.617188 222.25 L 101.605469 222.25 C 88.960938 219.320312 76.015625 217.289062 64.484375 215.269531 C 56.863281 210.820312 51.394531 208.597656 44.128906 205.023438 C 43.96875 205.710938 43.667969 206.566406 43.292969 207.507812 C 43.304688 199.535156 43.632812 190.632812 43.941406 182.519531 C 43.941406 182.484375 43.945312 182.449219 43.945312 182.410156 C 44.011719 180.722656 44.074219 179.082031 44.132812 177.480469 C 49.878906 167.566406 54.183594 155.792969 57.195312 143.503906 C 64.609375 150.78125 73.316406 125.667969 74.246094 116.335938 C 75.394531 104.90625 73.023438 99.363281 69.664062 98.609375 C 69.300781 98.523438 68.933594 98.453125 68.554688 98.480469 C 68.632812 98.089844 68.691406 97.652344 68.765625 97.25 C 72.421875 77.214844 70.59375 40.699219 52.265625 20.324219 C 40.175781 6.886719 20.960938 1.453125 3.402344 1.039062 L 3.402344 371.910156 L 119.730469 371.910156 C 121.101562 371.910156 122.632812 371.71875 124.226562 371.449219 C 124.601562 371.382812 124.96875 371.316406 125.351562 371.246094 C 126.980469 370.914062 128.675781 370.503906 130.46875 369.957031 C 130.503906 369.945312 130.542969 369.933594 130.578125 369.921875 C 132.394531 369.363281 134.285156 368.675781 136.214844 367.929688 C 136.566406 367.792969 136.914062 367.660156 137.269531 367.519531 C 139.265625 366.71875 141.292969 365.859375 143.347656 364.90625 L 143.351562 364.90625 L 143.355469 364.902344 C 146.269531 363.554688 149.207031 362.082031 152.109375 360.535156 L 152.117188 360.53125 C 158.253906 357.25 164.175781 353.644531 169.222656 350.234375 C 169.269531 350.203125 169.3125 350.171875 169.359375 350.140625 L 169.363281 350.136719 C 170.605469 349.292969 171.789062 348.472656 172.910156 347.664062 C 172.917969 347.660156 172.921875 347.65625 172.929688 347.648438 C 174.085938 346.816406 175.160156 346.011719 176.164062 345.234375 L 176.167969 345.230469 L 176.179688 345.222656 L 176.179688 345.21875 C 176.871094 344.683594 177.539062 344.152344 178.152344 343.648438 C 178.828125 343.09375 179.46875 342.554688 180.023438 342.046875 Z M 161.402344 261.410156 "/></g></g></g></g></g><mask id="5044b47d0e"><g filter="url(#716d13d580)"><rect x="0" width="375" y="0" height="374.999991" style="fill:#000000;fill-opacity:0.2;stroke:none;"/></g></mask></g></g></g></svg>