<svg xmlns="http://www.w3.org/2000/svg" xmlns:xlink="http://www.w3.org/1999/xlink" width="500" zoomAndPan="magnify" viewBox="0 0 375 374.999991" height="500" preserveAspectRatio="xMidYMid meet" version="1.0"><defs><g/><clipPath id="53c0b23b83"><rect x="0" width="193" y="0" height="374"/></clipPath></defs><g transform="matrix(1, 0, 0, 1, 77, 0)"><g clip-path="url(#53c0b23b83)"><g fill="#2e6417" fill-opacity="1"><g transform="translate(3.380575, 299.741874)"><g><path d="M 64.5 -81.171875 L 64.5 -65.125 C 64.5 -45.613281 73.617188 -35.546875 91.859375 -34.921875 L 91.859375 5.03125 C 39.847656 5.03125 13.738281 -23.703125 13.53125 -81.171875 Z M 101.296875 4.71875 L 101.296875 -35.234375 C 114.722656 -37.328125 121.4375 -47.601562 121.4375 -66.0625 L 121.4375 -113.265625 C 121.4375 -125.421875 114.722656 -132.128906 101.296875 -133.390625 L 101.296875 -172.40625 C 126.679688 -171.988281 145.085938 -166.742188 156.515625 -156.671875 C 167.953125 -146.609375 173.671875 -131.40625 173.671875 -111.0625 L 173.671875 -61.984375 C 173.671875 -20.660156 149.546875 1.570312 101.296875 4.71875 Z M 91.859375 -171.46875 L 91.859375 -133.390625 C 75.921875 -131.503906 66.171875 -124.0625 62.609375 -111.0625 L 14.46875 -112.9375 L 20.765625 -249.171875 L 166.421875 -249.171875 L 166.421875 -207.328125 L 66.375 -207.328125 L 64.5 -156.984375 C 68.269531 -160.765625 72.359375 -163.910156 76.765625 -166.421875 C 81.171875 -168.941406 86.203125 -170.625 91.859375 -171.46875 Z M 91.859375 -171.46875 "/></g></g></g></g></g></svg>