<svg xmlns="http://www.w3.org/2000/svg" xmlns:xlink="http://www.w3.org/1999/xlink" width="1200" zoomAndPan="magnify" viewBox="0 0 900 225" height="300" preserveAspectRatio="xMidYMid meet" version="1.0"><defs><g/><clipPath id="e58c9ae936"><rect x="0" width="278" y="0" height="162"/></clipPath><clipPath id="f01a3ab66e"><rect x="0" width="562" y="0" height="163"/></clipPath></defs><g transform="matrix(1, 0, 0, 1, 50, 30)"><g clip-path="url(#e58c9ae936)"><g fill="#2e6417" fill-opacity="1"><g transform="translate(1.081209, 130.106025)"><g><path d="M 27.59375 -34.734375 L 27.59375 -27.875 C 27.59375 -19.519531 31.5 -15.207031 39.3125 -14.9375 L 39.3125 2.15625 C 17.050781 2.15625 5.875 -10.140625 5.78125 -34.734375 Z M 43.34375 2.015625 L 43.34375 -15.078125 C 49.09375 -15.972656 51.96875 -20.367188 51.96875 -28.265625 L 51.96875 -48.46875 C 51.96875 -53.664062 49.09375 -56.535156 43.34375 -57.078125 L 43.34375 -73.78125 C 54.207031 -73.59375 62.082031 -71.34375 66.96875 -67.03125 C 71.863281 -62.726562 74.3125 -56.222656 74.3125 -47.515625 L 74.3125 -26.515625 C 74.3125 -8.835938 63.988281 0.671875 43.34375 2.015625 Z M 39.3125 -73.375 L 39.3125 -57.078125 C 32.488281 -56.273438 28.316406 -53.085938 26.796875 -47.515625 L 6.1875 -48.328125 L 8.890625 -106.625 L 71.21875 -106.625 L 71.21875 -88.71875 L 28.40625 -88.71875 L 27.59375 -67.171875 C 29.207031 -68.785156 30.957031 -70.128906 32.84375 -71.203125 C 34.726562 -72.285156 36.882812 -73.007812 39.3125 -73.375 Z M 39.3125 -73.375 "/></g></g></g><g fill="#a6a6a6" fill-opacity="1"><g transform="translate(81.470658, 130.106025)"><g><path d="M 6.734375 0 L 6.734375 -106.625 L 31.90625 -106.625 L 31.90625 0 Z M 6.734375 0 "/></g></g></g><g fill="#a6a6a6" fill-opacity="1"><g transform="translate(120.10717, 130.106025)"><g><path d="M 60.171875 -106.625 L 84.671875 -106.625 L 55.59375 0 L 46.046875 -38.90625 Z M 25.3125 -106.625 L 50.625 0 L 30.421875 0 L 0.9375 -106.625 Z M 25.3125 -106.625 "/></g></g></g><g fill="#a6a6a6" fill-opacity="1"><g transform="translate(205.053652, 130.106025)"><g><path d="M 35.140625 -46.578125 L 35.140625 -64.34375 L 65.296875 -64.34375 L 65.296875 -46.578125 Z M 35.140625 -88.71875 L 35.140625 -106.625 L 67.171875 -106.625 L 67.171875 -88.71875 Z M 67.171875 -18.4375 L 67.171875 0 L 35.140625 0 L 35.140625 -18.4375 Z M 6.734375 -106.625 L 31.375 -106.625 L 31.375 0 L 6.734375 0 Z M 6.734375 -106.625 "/></g></g></g></g></g><g transform="matrix(1, 0, 0, 1, 340, 43)"><g clip-path="url(#f01a3ab66e)"><g fill="#2e6417" fill-opacity="1"><g transform="translate(0.970377, 116.51967)"><g><path d="M 1.03125 -85.03125 L 1.03125 -106.28125 L 75.75 -106.28125 L 75.75 -85.03125 L 50.5 -85.03125 L 50.5 0 L 26.28125 0 L 26.28125 -85.03125 Z M 1.03125 -85.03125 "/></g></g></g><g fill="#2e6417" fill-opacity="1"><g transform="translate(77.751456, 116.51967)"><g><path d="M 7.734375 -106.28125 L 45.734375 -106.28125 C 55.953125 -106.28125 64.28125 -103.550781 70.71875 -98.09375 C 77.164062 -92.644531 80.390625 -84.851562 80.390625 -74.71875 C 80.390625 -66.90625 78.4375 -60.359375 74.53125 -55.078125 C 70.625 -49.796875 65.316406 -46.082031 58.609375 -43.9375 L 95.203125 0 L 64.40625 0 L 31.953125 -42 L 31.953125 0 L 7.734375 0 Z M 31.953125 -59.125 L 34.78125 -59.125 C 37.019531 -59.125 38.910156 -59.164062 40.453125 -59.25 C 41.992188 -59.34375 43.753906 -59.644531 45.734375 -60.15625 C 47.710938 -60.675781 49.300781 -61.40625 50.5 -62.34375 C 51.695312 -63.289062 52.722656 -64.664062 53.578125 -66.46875 C 54.441406 -68.28125 54.875 -70.472656 54.875 -73.046875 C 54.875 -75.617188 54.441406 -77.804688 53.578125 -79.609375 C 52.722656 -81.421875 51.695312 -82.796875 50.5 -83.734375 C 49.300781 -84.679688 47.710938 -85.410156 45.734375 -85.921875 C 43.753906 -86.441406 41.992188 -86.742188 40.453125 -86.828125 C 38.910156 -86.910156 37.019531 -86.953125 34.78125 -86.953125 L 31.953125 -86.953125 Z M 31.953125 -59.125 "/></g></g></g><g fill="#2e6417" fill-opacity="1"><g transform="translate(169.991806, 116.51967)"><g><path d="M 61.703125 -106.28125 L 104.609375 0 L 78.578125 0 L 70.734375 -21.25 L 30.28125 -21.25 L 22.421875 0 L -3.609375 0 L 39.296875 -106.28125 Z M 62.484375 -42.515625 L 50.625 -73.4375 L 50.375 -73.4375 L 38.515625 -42.515625 Z M 62.484375 -42.515625 "/></g></g></g><g fill="#2e6417" fill-opacity="1"><g transform="translate(266.869857, 116.51967)"><g><path d="M 64.28125 -21.90625 C 67.976562 -21.90625 71.566406 -22.460938 75.046875 -23.578125 C 78.523438 -24.691406 81.078125 -25.765625 82.703125 -26.796875 L 85.15625 -28.46875 L 95.46875 -7.859375 C 95.125 -7.597656 94.648438 -7.253906 94.046875 -6.828125 C 93.441406 -6.398438 92.046875 -5.601562 89.859375 -4.4375 C 87.671875 -3.28125 85.328125 -2.269531 82.828125 -1.40625 C 80.335938 -0.550781 77.070312 0.21875 73.03125 0.90625 C 69 1.59375 64.835938 1.9375 60.546875 1.9375 C 50.671875 1.9375 41.3125 -0.488281 32.46875 -5.34375 C 23.625 -10.195312 16.492188 -16.875 11.078125 -25.375 C 5.671875 -33.882812 2.96875 -43.078125 2.96875 -52.953125 C 2.96875 -60.421875 4.554688 -67.585938 7.734375 -74.453125 C 10.910156 -81.328125 15.140625 -87.210938 20.421875 -92.109375 C 25.703125 -97.003906 31.863281 -100.910156 38.90625 -103.828125 C 45.945312 -106.753906 53.160156 -108.21875 60.546875 -108.21875 C 67.421875 -108.21875 73.753906 -107.398438 79.546875 -105.765625 C 85.347656 -104.128906 89.453125 -102.5 91.859375 -100.875 L 95.46875 -98.421875 L 85.15625 -77.8125 C 84.550781 -78.320312 83.644531 -78.941406 82.4375 -79.671875 C 81.238281 -80.410156 78.835938 -81.378906 75.234375 -82.578125 C 71.628906 -83.773438 67.976562 -84.375 64.28125 -84.375 C 58.445312 -84.375 53.207031 -83.429688 48.5625 -81.546875 C 43.925781 -79.660156 40.253906 -77.171875 37.546875 -74.078125 C 34.847656 -70.984375 32.789062 -67.65625 31.375 -64.09375 C 29.957031 -60.53125 29.25 -56.898438 29.25 -53.203125 C 29.25 -45.128906 32.273438 -37.894531 38.328125 -31.5 C 44.378906 -25.101562 53.03125 -21.90625 64.28125 -21.90625 Z M 64.28125 -21.90625 "/></g></g></g><g fill="#2e6417" fill-opacity="1"><g transform="translate(363.876797, 116.51967)"><g><path d="M 104.484375 0 L 71.109375 0 L 31.953125 -45.09375 L 31.953125 0 L 7.734375 0 L 7.734375 -106.28125 L 31.953125 -106.28125 L 31.953125 -62.875 L 68.40625 -106.28125 L 97.78125 -106.28125 L 55.015625 -55.90625 Z M 104.484375 0 "/></g></g></g><g fill="#2e6417" fill-opacity="1"><g transform="translate(465.26387, 116.51967)"><g><path d="M 7.734375 -106.28125 L 45.734375 -106.28125 C 55.953125 -106.28125 64.28125 -103.550781 70.71875 -98.09375 C 77.164062 -92.644531 80.390625 -84.851562 80.390625 -74.71875 C 80.390625 -66.90625 78.4375 -60.359375 74.53125 -55.078125 C 70.625 -49.796875 65.316406 -46.082031 58.609375 -43.9375 L 95.203125 0 L 64.40625 0 L 31.953125 -42 L 31.953125 0 L 7.734375 0 Z M 31.953125 -59.125 L 34.78125 -59.125 C 37.019531 -59.125 38.910156 -59.164062 40.453125 -59.25 C 41.992188 -59.34375 43.753906 -59.644531 45.734375 -60.15625 C 47.710938 -60.675781 49.300781 -61.40625 50.5 -62.34375 C 51.695312 -63.289062 52.722656 -64.664062 53.578125 -66.46875 C 54.441406 -68.28125 54.875 -70.472656 54.875 -73.046875 C 54.875 -75.617188 54.441406 -77.804688 53.578125 -79.609375 C 52.722656 -81.421875 51.695312 -82.796875 50.5 -83.734375 C 49.300781 -84.679688 47.710938 -85.410156 45.734375 -85.921875 C 43.753906 -86.441406 41.992188 -86.742188 40.453125 -86.828125 C 38.910156 -86.910156 37.019531 -86.953125 34.78125 -86.953125 L 31.953125 -86.953125 Z M 31.953125 -59.125 "/></g></g></g></g></g></svg>