<svg xmlns="http://www.w3.org/2000/svg" xmlns:xlink="http://www.w3.org/1999/xlink" width="500" zoomAndPan="magnify" viewBox="0 0 375 374.999991" height="500" preserveAspectRatio="xMidYMid meet" version="1.2"><defs/><g id="1b1373515a"><g style="fill:#2e6417;fill-opacity:1;"><g transform="translate(92.800229, 179.04108)"><path style="stroke:none" d="M 19 -23.90625 L 19 -19.1875 C 19 -13.4375 21.6875 -10.46875 27.0625 -10.28125 L 27.0625 1.484375 C 11.738281 1.484375 4.046875 -6.976562 3.984375 -23.90625 Z M 29.84375 1.390625 L 29.84375 -10.375 C 33.800781 -11 35.78125 -14.03125 35.78125 -19.46875 L 35.78125 -33.375 C 35.78125 -36.957031 33.800781 -38.929688 29.84375 -39.296875 L 29.84375 -50.796875 C 37.320312 -50.671875 42.742188 -49.125 46.109375 -46.15625 C 49.472656 -43.1875 51.15625 -38.707031 51.15625 -32.71875 L 51.15625 -18.265625 C 51.15625 -6.085938 44.050781 0.460938 29.84375 1.390625 Z M 27.0625 -50.515625 L 27.0625 -39.296875 C 22.363281 -38.742188 19.488281 -36.550781 18.4375 -32.71875 L 4.265625 -33.28125 L 6.125 -73.40625 L 49.03125 -73.40625 L 49.03125 -61.078125 L 19.5625 -61.078125 L 19 -46.25 C 20.113281 -47.363281 21.316406 -48.289062 22.609375 -49.03125 C 23.910156 -49.769531 25.394531 -50.265625 27.0625 -50.515625 Z M 27.0625 -50.515625 "/></g></g><g style="fill:#a6a6a6;fill-opacity:1;"><g transform="translate(148.147443, 179.04108)"><path style="stroke:none" d="M 4.640625 0 L 4.640625 -73.40625 L 21.96875 -73.40625 L 21.96875 0 Z M 4.640625 0 "/></g></g><g style="fill:#a6a6a6;fill-opacity:1;"><g transform="translate(174.748238, 179.04108)"><path style="stroke:none" d="M 41.4375 -73.40625 L 58.296875 -73.40625 L 38.28125 0 L 31.703125 -26.78125 Z M 17.421875 -73.40625 L 34.84375 0 L 20.953125 0 L 0.65625 -73.40625 Z M 17.421875 -73.40625 "/></g></g><g style="fill:#a6a6a6;fill-opacity:1;"><g transform="translate(233.232917, 179.04108)"><path style="stroke:none" d="M 24.1875 -32.0625 L 24.1875 -44.296875 L 44.953125 -44.296875 L 44.953125 -32.0625 Z M 24.1875 -61.078125 L 24.1875 -73.40625 L 46.25 -73.40625 L 46.25 -61.078125 Z M 46.25 -12.703125 L 46.25 0 L 24.1875 0 L 24.1875 -12.703125 Z M 4.640625 -73.40625 L 21.59375 -73.40625 L 21.59375 0 L 4.640625 0 Z M 4.640625 -73.40625 "/></g></g><g style="fill:#2e6417;fill-opacity:1;"><g transform="translate(63.482285, 250.811105)"><path style="stroke:none" d="M 0.453125 -37.625 L 0.453125 -47.03125 L 33.53125 -47.03125 L 33.53125 -37.625 L 22.34375 -37.625 L 22.34375 0 L 11.625 0 L 11.625 -37.625 Z M 0.453125 -37.625 "/></g></g><g style="fill:#2e6417;fill-opacity:1;"><g transform="translate(97.458496, 250.811105)"><path style="stroke:none" d="M 3.421875 -47.03125 L 20.234375 -47.03125 C 24.765625 -47.03125 28.453125 -45.820312 31.296875 -43.40625 C 34.148438 -41 35.578125 -37.550781 35.578125 -33.0625 C 35.578125 -29.601562 34.710938 -26.707031 32.984375 -24.375 C 31.253906 -22.039062 28.90625 -20.394531 25.9375 -19.4375 L 42.140625 0 L 28.515625 0 L 14.140625 -18.59375 L 14.140625 0 L 3.421875 0 Z M 14.140625 -26.171875 L 15.390625 -26.171875 C 16.378906 -26.171875 17.210938 -26.1875 17.890625 -26.21875 C 18.578125 -26.257812 19.359375 -26.394531 20.234375 -26.625 C 21.109375 -26.851562 21.8125 -27.175781 22.34375 -27.59375 C 22.875 -28.007812 23.328125 -28.617188 23.703125 -29.421875 C 24.085938 -30.222656 24.28125 -31.191406 24.28125 -32.328125 C 24.28125 -33.460938 24.085938 -34.429688 23.703125 -35.234375 C 23.328125 -36.035156 22.875 -36.644531 22.34375 -37.0625 C 21.8125 -37.476562 21.109375 -37.800781 20.234375 -38.03125 C 19.359375 -38.257812 18.578125 -38.390625 17.890625 -38.421875 C 17.210938 -38.460938 16.378906 -38.484375 15.390625 -38.484375 L 14.140625 -38.484375 Z M 14.140625 -26.171875 "/></g></g><g style="fill:#2e6417;fill-opacity:1;"><g transform="translate(138.275551, 250.811105)"><path style="stroke:none" d="M 27.3125 -47.03125 L 46.296875 0 L 34.78125 0 L 31.296875 -9.40625 L 13.40625 -9.40625 L 9.921875 0 L -1.59375 0 L 17.390625 -47.03125 Z M 27.65625 -18.8125 L 22.40625 -32.5 L 22.296875 -32.5 L 17.046875 -18.8125 Z M 27.65625 -18.8125 "/></g></g><g style="fill:#2e6417;fill-opacity:1;"><g transform="translate(181.144822, 250.811105)"><path style="stroke:none" d="M 28.453125 -9.6875 C 30.085938 -9.6875 31.671875 -9.929688 33.203125 -10.421875 C 34.742188 -10.921875 35.878906 -11.398438 36.609375 -11.859375 L 37.6875 -12.59375 L 42.25 -3.484375 C 42.09375 -3.367188 41.878906 -3.210938 41.609375 -3.015625 C 41.347656 -2.828125 40.734375 -2.476562 39.765625 -1.96875 C 38.796875 -1.457031 37.757812 -1.007812 36.65625 -0.625 C 35.550781 -0.25 34.101562 0.0859375 32.3125 0.390625 C 30.53125 0.703125 28.691406 0.859375 26.796875 0.859375 C 22.421875 0.859375 18.273438 -0.210938 14.359375 -2.359375 C 10.453125 -4.515625 7.300781 -7.472656 4.90625 -11.234375 C 2.507812 -14.992188 1.3125 -19.0625 1.3125 -23.4375 C 1.3125 -26.738281 2.015625 -29.910156 3.421875 -32.953125 C 4.828125 -35.992188 6.695312 -38.597656 9.03125 -40.765625 C 11.375 -42.929688 14.101562 -44.660156 17.21875 -45.953125 C 20.332031 -47.242188 23.523438 -47.890625 26.796875 -47.890625 C 29.835938 -47.890625 32.640625 -47.523438 35.203125 -46.796875 C 37.773438 -46.078125 39.59375 -45.359375 40.65625 -44.640625 L 42.25 -43.5625 L 37.6875 -34.4375 C 37.414062 -34.664062 37.015625 -34.941406 36.484375 -35.265625 C 35.953125 -35.585938 34.890625 -36.015625 33.296875 -36.546875 C 31.703125 -37.078125 30.085938 -37.34375 28.453125 -37.34375 C 25.867188 -37.34375 23.550781 -36.925781 21.5 -36.09375 C 19.445312 -35.257812 17.820312 -34.15625 16.625 -32.78125 C 15.425781 -31.414062 14.507812 -29.941406 13.875 -28.359375 C 13.25 -26.785156 12.9375 -25.179688 12.9375 -23.546875 C 12.9375 -19.972656 14.273438 -16.769531 16.953125 -13.9375 C 19.640625 -11.101562 23.472656 -9.6875 28.453125 -9.6875 Z M 28.453125 -9.6875 "/></g></g><g style="fill:#2e6417;fill-opacity:1;"><g transform="translate(224.071143, 250.811105)"><path style="stroke:none" d="M 46.234375 0 L 31.46875 0 L 14.140625 -19.953125 L 14.140625 0 L 3.421875 0 L 3.421875 -47.03125 L 14.140625 -47.03125 L 14.140625 -27.828125 L 30.28125 -47.03125 L 43.28125 -47.03125 L 24.34375 -24.75 Z M 46.234375 0 "/></g></g><g style="fill:#a6a6a6;fill-opacity:1;"><g transform="translate(268.937086, 250.811105)"><path style="stroke:none" d="M 3.421875 -47.03125 L 20.234375 -47.03125 C 24.765625 -47.03125 28.453125 -45.820312 31.296875 -43.40625 C 34.148438 -41 35.578125 -37.550781 35.578125 -33.0625 C 35.578125 -29.601562 34.710938 -26.707031 32.984375 -24.375 C 31.253906 -22.039062 28.90625 -20.394531 25.9375 -19.4375 L 42.140625 0 L 28.515625 0 L 14.140625 -18.59375 L 14.140625 0 L 3.421875 0 Z M 14.140625 -26.171875 L 15.390625 -26.171875 C 16.378906 -26.171875 17.210938 -26.1875 17.890625 -26.21875 C 18.578125 -26.257812 19.359375 -26.394531 20.234375 -26.625 C 21.109375 -26.851562 21.8125 -27.175781 22.34375 -27.59375 C 22.875 -28.007812 23.328125 -28.617188 23.703125 -29.421875 C 24.085938 -30.222656 24.28125 -31.191406 24.28125 -32.328125 C 24.28125 -33.460938 24.085938 -34.429688 23.703125 -35.234375 C 23.328125 -36.035156 22.875 -36.644531 22.34375 -37.0625 C 21.8125 -37.476562 21.109375 -37.800781 20.234375 -38.03125 C 19.359375 -38.257812 18.578125 -38.390625 17.890625 -38.421875 C 17.210938 -38.460938 16.378906 -38.484375 15.390625 -38.484375 L 14.140625 -38.484375 Z M 14.140625 -26.171875 "/></g></g></g></svg>