<svg xmlns="http://www.w3.org/2000/svg" xmlns:xlink="http://www.w3.org/1999/xlink" width="500" zoomAndPan="magnify" viewBox="0 0 375 374.999991" height="500" preserveAspectRatio="xMidYMid meet" version="1.2"><defs><filter x="0%" y="0%" width="100%" filterUnits="objectBoundingBox" id="56a1b689ec" height="100%"><feColorMatrix values="0 0 0 0 1 0 0 0 0 1 0 0 0 0 1 0 0 0 1 0" type="matrix" in="SourceGraphic"/></filter><clipPath id="53008febf6"><path d="M 43.273438 18.097656 L 317.773438 18.097656 L 317.773438 357 L 43.273438 357 Z M 43.273438 18.097656 "/></clipPath><clipPath id="b2c103999a"><path d="M 317.714844 28.597656 L 317.714844 346.398438 C 317.714844 349.183594 316.609375 351.855469 314.640625 353.824219 C 312.671875 355.792969 310 356.898438 307.214844 356.898438 L 53.773438 356.898438 C 50.988281 356.898438 48.320312 355.792969 46.351562 353.824219 C 44.382812 351.855469 43.273438 349.183594 43.273438 346.398438 L 43.273438 28.597656 C 43.273438 25.8125 44.382812 23.140625 46.351562 21.171875 C 48.320312 19.203125 50.988281 18.097656 53.773438 18.097656 L 307.214844 18.097656 C 310 18.097656 312.671875 19.203125 314.640625 21.171875 C 316.609375 23.140625 317.714844 25.8125 317.714844 28.597656 Z M 317.714844 28.597656 "/></clipPath><clipPath id="11c00d2c49"><rect x="0" width="362" y="0" height="375"/></clipPath><clipPath id="866aebd782"><path d="M 0.160156 0.359375 L 262.960938 0.359375 L 262.960938 8.761719 L 0.160156 8.761719 Z M 0.160156 0.359375 "/></clipPath><clipPath id="88607786bc"><rect x="0" width="263" y="0" height="9"/></clipPath><clipPath id="01489f9b12"><path d="M 1.023438 0.078125 L 112 0.078125 L 112 55.578125 L 1.023438 55.578125 Z M 1.023438 0.078125 "/></clipPath><clipPath id="e4d1d5d429"><rect x="0" width="113" y="0" height="56"/></clipPath><clipPath id="ad499bfb8d"><path d="M 1 1.144531 L 111.976562 1.144531 L 111.976562 56.644531 L 1 56.644531 Z M 1 1.144531 "/></clipPath><clipPath id="d784754508"><rect x="0" width="113" y="0" height="57"/></clipPath></defs><g id="25198cfa64"><g mask="url(#671d04fc1d)" transform="matrix(1,0,0,1,7,0)"><g clip-path="url(#11c00d2c49)"><g clip-rule="nonzero" clip-path="url(#53008febf6)"><g clip-rule="nonzero" clip-path="url(#b2c103999a)"><path style="fill:none;stroke-width:28;stroke-linecap:butt;stroke-linejoin:miter;stroke:#2e6417;stroke-opacity:1;stroke-miterlimit:4;" d="M 365.920164 14.001018 L 365.920164 437.735394 C 365.920164 441.448935 364.446206 445.011435 361.821206 447.636435 C 359.196206 450.261435 355.633706 451.735394 351.920164 451.735394 L 13.998288 451.735394 C 10.284747 451.735394 6.727455 450.261435 4.102455 447.636435 C 1.477455 445.011435 -0.0017116 441.448935 -0.0017116 437.735394 L -0.0017116 14.001018 C -0.0017116 10.287476 1.477455 6.724976 4.102455 4.099976 C 6.727455 1.474976 10.284747 0.00101792 13.998288 0.00101792 L 351.920164 0.00101792 C 355.633706 0.00101792 359.196206 1.474976 361.821206 4.099976 C 364.446206 6.724976 365.920164 10.287476 365.920164 14.001018 Z M 365.920164 14.001018 " transform="matrix(0.75,0,0,0.75,43.274721,18.096893)"/></g></g></g><mask id="671d04fc1d"><g filter="url(#56a1b689ec)"><rect x="0" width="375" y="0" height="374.999991" style="fill:#000000;fill-opacity:0.25;stroke:none;"/></g></mask></g><g mask="url(#3e3ea53d19)" transform="matrix(1,0,0,1,56,183)"><g clip-path="url(#88607786bc)"><g clip-rule="nonzero" clip-path="url(#866aebd782)"><path style="fill:none;stroke-width:11;stroke-linecap:butt;stroke-linejoin:miter;stroke:#2e6417;stroke-opacity:1;stroke-miterlimit:4;" d="M 0.00124932 5.500016 L 337.740855 5.500016 " transform="matrix(0.75,0.000000000000000063,-0.000000000000000063,0.75,4.772501,0.374988)"/></g></g><mask id="3e3ea53d19"><g filter="url(#56a1b689ec)"><rect x="0" width="375" y="0" height="374.999991" style="fill:#000000;fill-opacity:0.25;stroke:none;"/></g></mask></g><g mask="url(#a50ccc44da)" transform="matrix(1,0,0,1,131,28)"><g clip-path="url(#e4d1d5d429)"><g clip-rule="nonzero" clip-path="url(#01489f9b12)"><path style=" stroke:none;fill-rule:nonzero;fill:#2e6417;fill-opacity:1;" d="M 56.550781 55.589844 C 41.234375 55.589844 27.378906 49.386719 17.402344 39.359375 C 7.371094 29.328125 1.171875 15.472656 1.171875 0.210938 L 8.773438 0.210938 C 8.773438 13.367188 14.113281 25.339844 22.742188 33.964844 C 31.421875 42.59375 43.339844 47.984375 56.550781 47.984375 C 69.707031 47.984375 81.679688 42.59375 90.304688 33.964844 C 98.933594 25.339844 104.273438 13.367188 104.273438 0.210938 L 111.875 0.210938 C 111.875 15.472656 105.726562 29.328125 95.699219 39.359375 C 85.667969 49.386719 71.808594 55.589844 56.550781 55.589844 Z M 56.550781 55.589844 "/></g></g><mask id="a50ccc44da"><g filter="url(#56a1b689ec)"><rect x="0" width="375" y="0" height="374.999991" style="fill:#000000;fill-opacity:0.25;stroke:none;"/></g></mask></g><g mask="url(#9d54c6e484)" transform="matrix(1,0,0,1,131,290)"><g clip-path="url(#d784754508)"><g clip-rule="nonzero" clip-path="url(#ad499bfb8d)"><path style=" stroke:none;fill-rule:nonzero;fill:#2e6417;fill-opacity:1;" d="M 56.449219 1.132812 C 71.761719 1.132812 85.621094 7.335938 95.597656 17.367188 C 105.625 27.394531 111.828125 41.253906 111.828125 56.511719 L 104.226562 56.511719 C 104.226562 43.355469 98.886719 31.386719 90.257812 22.757812 C 81.578125 14.128906 69.660156 8.738281 56.449219 8.738281 C 43.292969 8.738281 31.320312 14.128906 22.695312 22.757812 C 14.066406 31.386719 8.726562 43.355469 8.726562 56.511719 L 1.125 56.511719 C 1.125 41.253906 7.273438 27.394531 17.300781 17.367188 C 27.332031 7.335938 41.1875 1.132812 56.449219 1.132812 Z M 56.449219 1.132812 "/></g></g><mask id="9d54c6e484"><g filter="url(#56a1b689ec)"><rect x="0" width="375" y="0" height="374.999991" style="fill:#000000;fill-opacity:0.25;stroke:none;"/></g></mask></g></g></svg>